<svg width="16" height="17" viewBox="0 0 16 17" fill="none" xmlns="http://www.w3.org/2000/svg">
<path fill-rule="evenodd" clip-rule="evenodd" d="M8 16.5242C10.1217 16.5242 12.1566 15.6813 13.6569 14.181C15.1571 12.6807 16 10.6459 16 8.52417C16 6.40244 15.1571 4.36761 13.6569 2.86732C12.1566 1.36702 10.1217 0.52417 8 0.52417C5.87827 0.52417 3.84344 1.36702 2.34315 2.86732C0.842855 4.36761 0 6.40244 0 8.52417C0 10.6459 0.842855 12.6807 2.34315 14.181C3.84344 15.6813 5.87827 16.5242 8 16.5242ZM9 4.52417C9 4.25895 8.89464 4.0046 8.70711 3.81706C8.51957 3.62953 8.26522 3.52417 8 3.52417C7.73478 3.52417 7.48043 3.62953 7.29289 3.81706C7.10536 4.0046 7 4.25895 7 4.52417V8.52417C7.00006 8.78936 7.10545 9.04368 7.293 9.23117L10.121 12.0602C10.2139 12.1531 10.3242 12.2268 10.4456 12.2771C10.567 12.3273 10.6971 12.3532 10.8285 12.3532C10.9599 12.3532 11.09 12.3273 11.2114 12.2771C11.3328 12.2268 11.4431 12.1531 11.536 12.0602C11.6289 11.9673 11.7026 11.857 11.7529 11.7356C11.8032 11.6142 11.8291 11.4841 11.8291 11.3527C11.8291 11.2213 11.8032 11.0912 11.7529 10.9698C11.7026 10.8484 11.6289 10.7381 11.536 10.6452L9 8.11017V4.52417Z" fill="#073047"/>
</svg>
