<svg width="54" height="56" viewBox="0 0 54 56" fill="none" xmlns="http://www.w3.org/2000/svg">
<g clip-path="url(#clip0_65_68)">
<path d="M11.826 0H42.174C48.7055 0 54 5.49062 54 12.264V43.736C54 50.5094 48.7055 56 42.174 56H11.826C5.29453 56 0 50.5094 0 43.736V12.264C0 5.49062 5.29453 0 11.826 0Z" fill="url(#paint0_linear_65_68)"/>
<path d="M17.306 40.646L17.311 40.6478L15.4647 43.964C14.7908 45.1746 13.2982 45.5893 12.1308 44.8904C10.9637 44.1915 10.5636 42.6437 11.2375 41.4331L12.5976 38.9901L12.7282 38.7556C12.9613 38.4082 13.5365 37.8084 14.6872 37.9213C14.6872 37.9213 17.395 38.226 17.591 39.6855C17.591 39.6855 17.6175 40.1656 17.306 40.646ZM43.4924 32.176H37.7351C37.3429 32.1487 37.1719 32.0034 37.1044 31.919L37.1001 31.9113L30.9372 20.8413L30.9292 20.8467L30.5596 20.2972C29.9538 19.3365 28.9919 21.7935 28.9919 21.7935C27.8434 24.5314 29.155 27.644 29.6121 28.5848L38.1723 43.9607C38.8461 45.1711 40.3387 45.5861 41.5062 44.8869C42.6733 44.188 43.0735 42.6401 42.3993 41.4296L40.2589 37.5848C40.2174 37.4916 40.1452 37.2388 40.5842 37.2377H43.4924C44.8403 37.2377 45.9329 36.1046 45.9329 34.7067C45.9329 33.3089 44.8403 32.1758 43.4924 32.1758V32.176ZM32.3097 35.6165C32.3097 35.6165 32.6171 37.2377 31.428 37.2377H10.1446C8.79676 37.2377 7.7041 36.1046 7.7041 34.7067C7.7041 33.3089 8.79676 32.1758 10.1446 32.1758H15.6164C16.4998 32.1229 16.709 31.5939 16.709 31.5939L16.7141 31.5966L23.8564 18.7673L23.8543 18.7669C23.9845 18.519 23.876 18.2847 23.8573 18.2478L21.4984 14.0108C20.8244 12.8005 21.2244 11.2524 22.3917 10.5537C23.559 9.85477 25.0516 10.2693 25.7255 11.4799L26.8195 13.4449L27.9115 11.4834C28.5854 10.273 30.078 9.85805 31.2454 10.5572C32.4127 11.2561 32.8126 12.8037 32.1387 14.0143L22.1997 31.8665C22.1563 31.9752 22.143 32.1458 22.4663 32.1758H28.4072L28.4085 32.236C28.4085 32.236 31.8421 32.2913 32.3097 35.6165Z" fill="white"/>
</g>
<defs>
<linearGradient id="paint0_linear_65_68" x1="27" y1="0" x2="27" y2="56" gradientUnits="userSpaceOnUse">
<stop stop-color="#17C9FB"/>
<stop offset="1" stop-color="#1A74E8"/>
</linearGradient>
<clipPath id="clip0_65_68">
<rect width="54" height="56" fill="white"/>
</clipPath>
</defs>
</svg>
