<svg width="48" height="56" viewBox="0 0 48 56" fill="none" xmlns="http://www.w3.org/2000/svg">
<path d="M2.4001 1.86649L3.3073 0.253688C3.03375 0.08815 2.72292 0.000393312 2.40621 -0.000721663C2.08949 -0.00183664 1.7781 0.0837296 1.50347 0.247337C1.22885 0.410945 1.00071 0.646801 0.842093 0.931092C0.683478 1.21538 0.600004 1.53804 0.600098 1.86649H2.4001ZM2.4001 54.1332H0.600098C0.600004 54.4616 0.683478 54.7843 0.842093 55.0686C1.00071 55.3528 1.22885 55.5887 1.50347 55.7523C1.7781 55.9159 2.08949 56.0015 2.40621 56.0004C2.72292 55.9992 3.03375 55.9115 3.3073 55.746L2.4001 54.1332ZM45.6001 27.9998L46.5073 29.6126C46.7792 29.4483 47.0049 29.2129 47.1617 28.9299C47.3185 28.6469 47.401 28.3262 47.401 27.9998C47.401 27.6734 47.3185 27.3527 47.1617 27.0698C47.0049 26.7868 46.7792 26.5514 46.5073 26.387L45.6001 27.9998ZM0.600098 1.86649V54.1332H4.2001V1.86649H0.600098ZM3.3073 55.746L46.5073 29.6126L44.6929 26.387L1.4929 52.5204L3.3073 55.746ZM46.5073 26.387L3.3073 0.253688L1.4929 3.47929L44.6929 29.6126L46.5073 26.387ZM3.5845 48.0702L32.3845 21.9369L30.0157 19.1294L1.2157 45.2628L3.5845 48.0702ZM1.2157 10.7369L30.0157 36.8702L32.3845 34.0628L3.5845 7.92942L1.2157 10.7369Z" fill="white"/>
</svg>
